<svg className="w-full h-full" width="1024" height="1024" viewBox="0 0 1024 1024" fill="none" xmlns="http://www.w3.org/2000/svg">
<rect width="1024" height="1024" rx="71" fill="#111111"/>
<path d="M1718.29 -278.194L1846.01 -98.7106L1312.83 10.5584L1309.75 11.1973L1467.49 232.847L1103.43 491.917L1063.11 435.253L1354.76 227.707L1316.53 173.988L950.438 434.509L1067.22 598.612L1580.16 233.592L1452.96 54.8446L1988.69 -55.7995L1792.73 -331.169L1718.29 -278.194Z" fill="#FF3600"/>
<path d="M819.866 538.674L772.142 642.589L875.036 569.367L915.619 626.395L589.064 858.78L739.269 531.766C753.786 500.014 778.878 470.443 809.698 448.511L1278.08 115.197L1277.29 114.086C1256.53 84.9056 1208.59 83.2012 1170.53 110.29L764.751 399.052C722.917 428.821 689.006 468.907 669.185 512.021L486.512 909.779C476.236 932.153 481.288 953.773 499.426 964.741C517.565 975.709 543.388 972.729 565.223 957.191L1024.62 630.271L907.09 465.112L844.291 509.801C833.567 517.433 824.986 527.667 819.866 538.674Z" fill="#FF3600"/>
<path d="M1533.07 -694.896L1090.12 -379.686C1054.9 -354.618 1028.64 -317.63 1016.14 -275.447L967.878 -112.323L797.948 -120.178C753.995 -122.184 710.447 -109.5 675.221 -84.4324L191.659 259.682L541.839 261.649C573.085 261.816 602.871 252.525 628.009 234.636L798.932 113.003C807.962 106.577 814.592 97.1223 817.841 86.3612L830.389 43.892L786.153 41.832C774.921 41.3758 763.816 44.5419 754.786 50.968L590.046 168.201C573.694 179.837 554.365 185.912 534.048 185.777L427.635 185.206L713.916 -18.5187C739.868 -36.9865 772.006 -46.4156 804.362 -44.8622L945.91 -38.3158L905.716 97.5633C896.582 128.642 877.143 155.917 851.191 174.385L642.927 322.59C618.847 339.726 590.319 348.891 560.328 349.111L59 352.422L285.352 670.5L344.74 628.238L200.39 425.392L567.917 424.871C608.958 424.852 648.105 412.356 681.053 388.909L900.706 232.599C935.932 207.531 962.185 170.543 974.691 128.36L1022.95 -34.764L1260.94 -23.7506L1360.02 -94.2642L1044.92 -108.771L1085.11 -244.65C1094.25 -275.729 1113.68 -303.004 1139.64 -321.472L1222.53 -380.464L1403.96 -125.526L1463.34 -167.788L1281.92 -422.726L1577.21 -632.861L1533.07 -694.896Z" fill="white"/>
</svg>
